<svg xmlns="http://www.w3.org/2000/svg" aria-hidden="true" focusable="false" class="octicon octicon-ellipsis" viewBox="0 0 16 16" width="16" height="16" fill="currentColor" style="display: inline-block; user-select: none; vertical-align: text-bottom; overflow: visible;"><path d="M0 5.75C0 4.784.784 4 1.75 4h12.5c.966 0 1.75.784 1.75 1.75v4.5A1.75 1.75 0 0 1 14.25 12H1.75A1.75 1.75 0 0 1 0 10.25ZM12 7a1 1 0 1 0 0 2 1 1 0 0 0 0-2ZM7 8a1 1 0 1 0 2 0 1 1 0 0 0-2 0ZM4 7a1 1 0 1 0 0 2 1 1 0 0 0 0-2Z"/></svg>